<svg width="187" height="40" viewBox="0 0 187 40" fill="none" xmlns="http://www.w3.org/2000/svg">
<path d="M72.368 12.32V29H69.632V17.576L64.544 29H62.648L57.536 17.576V29H54.8V12.32H57.752L63.608 25.4L69.44 12.32H72.368ZM93.5321 12.32V29H90.7961V17.576L85.7081 29H83.8121L78.7001 17.576V29H75.9641V12.32H78.9161L84.7721 25.4L90.6041 12.32H93.5321ZM119.371 15.56C120.411 15.56 121.339 15.776 122.155 16.208C122.987 16.64 123.635 17.28 124.099 18.128C124.579 18.976 124.819 20 124.819 21.2V29H122.107V21.608C122.107 20.424 121.811 19.52 121.219 18.896C120.627 18.256 119.819 17.936 118.795 17.936C117.771 17.936 116.955 18.256 116.347 18.896C115.755 19.52 115.459 20.424 115.459 21.608V29H112.747V21.608C112.747 20.424 112.451 19.52 111.859 18.896C111.267 18.256 110.459 17.936 109.435 17.936C108.411 17.936 107.595 18.256 106.987 18.896C106.395 19.52 106.099 20.424 106.099 21.608V29H103.363V15.776H106.099V17.288C106.547 16.744 107.115 16.32 107.803 16.016C108.491 15.712 109.227 15.56 110.011 15.56C111.067 15.56 112.011 15.784 112.843 16.232C113.675 16.68 114.315 17.328 114.763 18.176C115.163 17.376 115.787 16.744 116.635 16.28C117.483 15.8 118.395 15.56 119.371 15.56ZM134.036 29.216C132.788 29.216 131.66 28.936 130.652 28.376C129.644 27.8 128.852 27 128.276 25.976C127.7 24.936 127.412 23.736 127.412 22.376C127.412 21.032 127.708 19.84 128.3 18.8C128.892 17.76 129.7 16.96 130.724 16.4C131.748 15.84 132.892 15.56 134.156 15.56C135.42 15.56 136.564 15.84 137.588 16.4C138.612 16.96 139.42 17.76 140.012 18.8C140.604 19.84 140.9 21.032 140.9 22.376C140.9 23.72 140.596 24.912 139.988 25.952C139.38 26.992 138.548 27.8 137.492 28.376C136.452 28.936 135.3 29.216 134.036 29.216ZM134.036 26.84C134.74 26.84 135.396 26.672 136.004 26.336C136.628 26 137.132 25.496 137.516 24.824C137.9 24.152 138.092 23.336 138.092 22.376C138.092 21.416 137.908 20.608 137.54 19.952C137.172 19.28 136.684 18.776 136.076 18.44C135.468 18.104 134.812 17.936 134.108 17.936C133.404 17.936 132.748 18.104 132.14 18.44C131.548 18.776 131.076 19.28 130.724 19.952C130.372 20.608 130.196 21.416 130.196 22.376C130.196 23.8 130.556 24.904 131.276 25.688C132.012 26.456 132.932 26.84 134.036 26.84ZM150.277 15.56C151.317 15.56 152.245 15.776 153.061 16.208C153.893 16.64 154.541 17.28 155.005 18.128C155.469 18.976 155.701 20 155.701 21.2V29H152.989V21.608C152.989 20.424 152.693 19.52 152.101 18.896C151.509 18.256 150.701 17.936 149.677 17.936C148.653 17.936 147.837 18.256 147.229 18.896C146.637 19.52 146.341 20.424 146.341 21.608V29H143.605V15.776H146.341V17.288C146.789 16.744 147.357 16.32 148.045 16.016C148.749 15.712 149.493 15.56 150.277 15.56ZM171.311 22.064C171.311 22.56 171.279 23.008 171.215 23.408H161.111C161.191 24.464 161.583 25.312 162.287 25.952C162.991 26.592 163.855 26.912 164.879 26.912C166.351 26.912 167.391 26.296 167.999 25.064H170.951C170.551 26.28 169.823 27.28 168.767 28.064C167.727 28.832 166.431 29.216 164.879 29.216C163.615 29.216 162.479 28.936 161.471 28.376C160.479 27.8 159.695 27 159.119 25.976C158.559 24.936 158.279 23.736 158.279 22.376C158.279 21.016 158.551 19.824 159.095 18.8C159.655 17.76 160.431 16.96 161.423 16.4C162.431 15.84 163.583 15.56 164.879 15.56C166.127 15.56 167.239 15.832 168.215 16.376C169.191 16.92 169.951 17.688 170.495 18.68C171.039 19.656 171.311 20.784 171.311 22.064ZM168.455 21.2C168.439 20.192 168.079 19.384 167.375 18.776C166.671 18.168 165.799 17.864 164.759 17.864C163.815 17.864 163.007 18.168 162.335 18.776C161.663 19.368 161.263 20.176 161.135 21.2H168.455ZM185.907 15.776L177.795 35.216H174.963L177.651 28.784L172.443 15.776H175.491L179.211 25.856L183.075 15.776H185.907Z" fill="white"/>
<path d="M34.1422 5.85781C30.3647 2.08031 25.3422 0 20 0C14.6578 0 9.63531 2.08031 5.85781 5.85781C2.08031 9.63531 0 14.6578 0 20C0 25.3422 2.08039 30.3646 5.85781 34.1422C9.63523 37.9198 14.6578 40 20 40C25.3422 40 30.3647 37.9197 34.1422 34.1422C37.9197 30.3647 40 25.3422 40 20C40 14.6578 37.9196 9.63539 34.1422 5.85781Z" fill="#33CC95"/>
<g clip-path="url(#clip0)">
<path d="M20.5714 8V33.1429" stroke="white" stroke-width="2" stroke-linecap="round" stroke-linejoin="round"/>
<path d="M26.2857 12.5714H17.7142C16.6534 12.5714 15.636 12.9929 14.8858 13.743C14.1357 14.4932 13.7142 15.5106 13.7142 16.5714C13.7142 17.6323 14.1357 18.6497 14.8858 19.3999C15.636 20.15 16.6534 20.5714 17.7142 20.5714H23.4285C24.4894 20.5714 25.5068 20.9929 26.2569 21.743C27.0071 22.4932 27.4285 23.5106 27.4285 24.5714C27.4285 25.6323 27.0071 26.6497 26.2569 27.3999C25.5068 28.15 24.4894 28.5714 23.4285 28.5714H13.7142" stroke="white" stroke-width="2" stroke-linecap="round" stroke-linejoin="round"/>
</g>
<defs>
<clipPath id="clip0">
<rect width="27.4286" height="27.4286" fill="white" transform="translate(6.85712 6.85715)"/>
</clipPath>
</defs>
</svg>
